<?xml version="1.0" encoding="UTF-8" standalone="no"?>
<!DOCTYPE svg PUBLIC "-//W3C//DTD SVG 1.0//EN" "http://www.w3.org/TR/2001/REC-SVG-20010904/DTD/svg10.dtd">
<svg version="1.0" xmlns="http://www.w3.org/2000/svg" width="2175.000000pt" height="968.000000pt" viewBox="0 0 2175.000000 968.000000" preserveAspectRatio="xMidYMid meet">
<g transform="translate(0.000000,968.000000) scale(0.100000,-0.100000)" fill="#FFFFFF" stroke="none">
<path d="M3023 9551 c-208 -190 -1066 -1036 -1878 -1852 -787 -792 -1061
-1076 -1102 -1147 l-21 -37 34 -115 c164 -540 963 -2927 1105 -3300 29 -76 35
-84 73 -100 306 -134 3398 -1160 3494 -1160 49 0 2753 2687 3022 3003 38 45
74 93 78 107 10 29 -12 107 -219 750 -162 502 -723 2194 -831 2505 -44 127
-87 238 -95 247 -39 44 -358 157 -1713 609 -978 325 -1525 505 -1747 572 l-82
25 -118 -107z m1798 -767 c882 -295 1609 -541 1615 -547 6 -7 251 -735 544
-1620 l534 -1607 -644 -646 c-900 -901 -2182 -2167 -2212 -2182 -23 -13 -157
30 -1629 520 l-1604 534 -540 1617 -540 1617 1425 1425 c784 784 1430 1425
1436 1425 7 0 733 -241 1615 -536z"/>
<path d="M5383 7844 c-76 -28 -123 -104 -123 -200 0 -71 -87 -185 -485 -629
-292 -327 -444 -485 -467 -485 -10 0 -42 10 -70 22 -49 21 -50 22 -45 58 5 42
95 242 244 544 131 263 159 306 228 345 67 38 97 79 103 142 13 139 -109 235
-230 181 -92 -40 -134 -151 -93 -243 18 -38 18 -42 0 -97 -23 -74 -70 -180
-244 -548 l-143 -302 -206 1 c-161 1 -226 -2 -294 -16 -251 -51 -447 -153
-609 -318 -160 -163 -281 -391 -334 -634 -21 -97 -55 -314 -55 -350 0 -31 0
-31 85 -47 199 -38 369 -161 485 -353 52 -86 62 -95 119 -95 173 -1 364 -106
425 -233 26 -57 36 -160 36 -399 l0 -228 635 0 635 0 0 373 c-1 607 -17 1271
-33 1362 -18 99 -69 224 -154 377 -36 65 -63 122 -61 127 6 19 524 414 680
519 107 72 131 82 203 86 109 5 175 68 175 165 0 56 -20 100 -62 137 -100 88
-241 30 -281 -117 -16 -56 -26 -72 -85 -129 -37 -36 -161 -137 -277 -225 -115
-87 -264 -200 -330 -251 l-120 -92 -50 40 c-94 75 -135 120 -125 138 24 45
663 762 826 926 73 74 100 95 135 104 102 26 123 36 151 71 60 74 41 185 -43
251 -44 35 -91 42 -146 22z m-1816 -1975 c48 -23 117 -96 140 -149 20 -45 20
-145 1 -191 -24 -55 -87 -119 -143 -145 -64 -30 -171 -33 -230 -5 -52 24 -99
74 -126 136 -32 69 -32 183 -1 241 64 123 230 175 359 113z"/>
<path d="M3385 5748 c-43 -23 -64 -52 -70 -93 -9 -56 10 -119 42 -144 52 -42
182 -19 216 38 35 60 14 161 -42 194 -33 19 -115 22 -146 5z"/>
<path d="M2466 5079 c-80 -81 -227 -296 -298 -435 -61 -119 -99 -240 -105
-341 -5 -68 -3 -83 8 -83 8 0 57 32 108 71 316 240 681 454 824 484 32 6 36
33 12 86 -56 131 -261 271 -418 286 l-58 6 -73 -74z"/>
<path d="M9995 7008 c-3 -12 -336 -3503 -335 -3520 0 -5 169 -8 375 -8 206 0
375 3 375 8 0 4 9 122 20 262 11 140 20 263 20 273 0 16 13 17 172 15 l173 -3
22 -245 c12 -135 22 -260 22 -277 l1 -33 370 0 370 0 -4 23 c-3 12 -78 808
-168 1770 l-163 1747 -623 0 c-489 0 -623 -3 -627 -12z m690 -1758 c25 -283
48 -530 51 -547 l5 -33 -116 0 -115 0 0 35 c0 29 98 1316 101 1334 2 10 25
-238 74 -789z"/>
<path d="M12865 6540 c-181 -20 -328 -99 -382 -208 l-18 -37 -3 108 -3 107
-399 0 -400 0 0 -1515 0 -1515 400 0 400 0 0 1150 0 1149 31 17 c55 28 215 63
349 76 l130 12 0 333 c0 311 -1 333 -17 332 -10 -1 -49 -5 -88 -9z"/>
<path d="M13493 6525 c-209 -47 -348 -194 -408 -430 -43 -167 -47 -263 -42
-985 3 -577 6 -684 20 -740 41 -165 94 -274 176 -359 70 -73 120 -104 218
-138 68 -23 95 -26 203 -27 230 -1 344 57 400 201 l19 48 0 -110 c1 -200 -31
-311 -110 -378 -52 -45 -105 -59 -212 -58 -134 1 -295 44 -444 119 l-61 31
-127 -222 c-71 -122 -130 -225 -132 -229 -7 -13 142 -123 225 -166 148 -77
344 -112 629 -112 380 0 626 74 794 240 65 64 84 91 127 180 60 125 89 241
102 412 5 69 10 689 10 1416 l0 1292 -400 0 -400 0 0 -92 0 -93 -34 51 c-39
57 -101 103 -185 135 -72 28 -273 36 -368 14z m535 -655 c51 -75 52 -94 52
-670 0 -538 -4 -618 -37 -687 -29 -62 -116 -79 -161 -30 -44 48 -46 72 -49
684 -4 602 -1 674 36 723 37 51 118 40 159 -20z"/>
<path d="M17685 6529 c-234 -34 -455 -150 -576 -302 -49 -60 -111 -188 -130
-267 -21 -84 -19 -365 4 -461 36 -154 134 -305 279 -430 40 -35 156 -118 258
-184 173 -114 191 -129 281 -231 52 -60 105 -123 117 -140 52 -75 70 -278 33
-361 -11 -23 -28 -46 -39 -52 -30 -16 -94 -13 -121 5 -45 32 -51 66 -51 314
l0 230 -395 0 -395 0 0 -207 c0 -302 20 -411 102 -582 42 -87 62 -116 126
-180 156 -155 379 -231 677 -231 464 0 783 206 889 574 56 193 56 459 0 652
-31 110 -62 169 -139 274 -115 155 -202 231 -580 504 -197 142 -223 166 -255
228 -65 123 -7 258 99 232 30 -7 40 -18 61 -59 22 -44 25 -66 29 -177 l3 -128
404 0 404 0 0 98 c-1 255 -59 457 -174 609 -110 145 -302 242 -537 273 -89 11
-291 11 -374 -1z"/>
<path d="M15033 5263 c3 -1226 4 -1250 24 -1343 12 -52 31 -120 43 -150 65
-167 207 -280 392 -310 138 -22 319 -6 399 36 56 28 112 88 140 149 l28 60 1
-112 0 -113 390 0 390 0 0 1515 0 1515 -390 0 -390 0 0 -1102 c0 -1102 -3
-1205 -36 -1273 -24 -50 -90 -70 -147 -44 -54 25 -52 -27 -55 1242 l-2 1177
-395 0 -396 0 4 -1247z"/>
</g>
</svg>