<?xml version="1.0" encoding="utf-8"?>
<!DOCTYPE svg PUBLIC "-//W3C//DTD SVG 1.0//EN" "http://www.w3.org/TR/2001/REC-SVG-20010904/DTD/svg10.dtd">
<svg version="1.0" xmlns="http://www.w3.org/2000/svg" width="341px" height="342px" viewBox="0 0 341 342" preserveAspectRatio="xMidYMid meet">
 <g fill="#000000">
  <path d="M158 239 c0 -12.8 -0.7 -15.5 -5.2 -19.7 -4.8 -4.5 -14.2 -6.7 -18.6 -4.4 -0.9 0.5 -5.9 3 -11 5.5 -9.7 4.8 -17.9 10 -25 16 -3.5 2.8 -5.2 3.6 -8.4 3.6 l-4.1 0 0.6 -7.2 c0.3 -4 1.5 -9.7 2.6 -12.7 2.6 -6.5 9.7 -17.5 14.9 -23.4 3.7 -4.1 3.9 -4.6 5.1 -15 3.8 -34.1 23.3 -52.7 55.1 -52.7 l9.5 0 7.9 -17 c7.5 -16.1 7.9 -17.4 7.7 -23.3 -0.2 -5.1 0.2 -6.8 1.9 -9 1.9 -2.4 2.8 -2.7 8.4 -2.7 8.7 0 10.6 1.9 10.6 10.3 -0.1 6.8 -1 8.6 -5.4 10.8 -2.4 1.1 -4.4 4.4 -10.8 17.9 -9.2 19.2 -10.2 19.7 14.6 -8 14.1 -15.7 16.6 -19 16.6 -21.7 0 -7.1 3.6 -10.3 11.5 -10.3 3.2 0 5.1 0.7 7.2 2.4 2.5 2.2 2.8 3.1 2.8 8.4 0 7.1 -1.8 9.7 -7.6 10.9 -3.5 0.7 -6 3.1 -22.3 21.3 -15.7 17.5 -18.1 20.6 -16.6 21.4 1.4 0.6 5.1 -1.6 17.3 -10.9 14.3 -10.9 15.5 -12.1 16.1 -15.6 0.8 -5.1 3.6 -6.9 10.6 -6.9 6.7 0 9.5 2.1 10.6 7.6 0.8 4.5 -1.1 11 -3.6 12.4 -1 0.5 -3.5 1 -5.5 1 -3 0 -6 1.8 -19.5 12 l-15.9 12 1.9 3.3 c1.1 1.8 3 6 4.2 9.3 2.1 5.7 2.2 7.5 2.6 46.2 l0.3 40.2 -30.5 0 -30.6 0 0 -12z"/>
 </g>
 <g fill="#262626">
  <path d="M128.5 316 c-42.9 -14.3 -75.6 -25.7 -76.6 -26.7 -1.9 -2.1 -50.9 -148.5 -50.9 -152.3 0 -2 14 -16.5 66.8 -69.3 43.7 -43.7 67.4 -66.7 68.7 -66.7 1.1 0 35.9 11.3 77.3 25.1 61 20.3 75.4 25.5 76.4 27.2 2.4 4.6 49.8 148.4 49.8 151.2 0 2.6 -7.9 10.9 -66.2 69.2 -36.5 36.3 -67.2 66.4 -68.3 66.7 -1.2 0.4 -31 -9.1 -77 -24.4z m170.4 -182.7 l-22.5 -67.8 -67.9 -22.8 -68 -22.7 -60.5 60.5 -60.5 60.5 22.6 67.7 22.5 67.7 68 22.7 67.9 22.7 60.5 -60.4 60.5 -60.4 -22.6 -67.7z"/>
 </g>
 <g fill="#bbe6e4">
  <path d="M131.1 302.6 l-69.5 -23.2 -23.3 -70 -23.3 -69.9 62 -62 62 -62 70.2 23.5 70.2 23.5 23.3 70 23.3 70 -61.7 61.7 c-34 34 -62.2 61.8 -62.8 61.7 -0.5 0 -32.2 -10.5 -70.4 -23.3z m84.7 -91.8 c-0.4 -35.6 -0.5 -37.6 -2.6 -43.3 -1.2 -3.3 -3.6 -8.2 -5.3 -10.9 -1.6 -2.7 -2.8 -5.2 -2.7 -5.7 0.2 -0.4 8.1 -6.6 17.6 -13.7 12.3 -9.3 17.8 -12.8 19.2 -12.5 5.7 1.5 10.9 -4.1 8.9 -9.6 -3 -7.7 -13.2 -6.4 -14.5 1.8 -0.6 3.6 -1.8 4.7 -18 17 l-17.4 13.2 -4 -3.2 c-2.2 -1.8 -4 -3.6 -4 -4.1 0 -0.4 9 -10.9 20 -23.1 17.8 -19.8 20.4 -22.4 23.1 -22.4 6.8 0 9.8 -8.4 4.5 -13 -3 -2.6 -4.4 -2.8 -8 -1.2 -2.8 1.3 -4.7 5.2 -4.3 9 0.2 2.2 -3.4 6.8 -19.8 25.2 -11 12.4 -20.5 22.6 -21.2 22.6 -0.7 0.1 -2.4 -0.4 -3.8 -1.1 -3.1 -1.4 -3.4 -0.5 7 -22.4 6.9 -14.3 8.9 -17.6 11.1 -18.4 8.4 -3.2 6.6 -15 -2.2 -15 -5.6 0 -9.3 7 -6.2 11.9 1 1.6 -0.2 4.8 -8 21.3 l-9.1 19.3 -8.9 -0.4 c-19.4 -0.7 -35.6 7.2 -45.3 22.2 -6 9.2 -8.3 16.5 -10.4 31.8 l-0.6 4.6 4.2 0.7 c8.2 1.3 17 7.9 21 15.9 1.8 3.3 2.3 3.7 6 3.7 4.7 0 10.4 2.2 13.7 5.3 4.5 4.2 5.2 6.9 5.2 19.7 l0 12 27.6 0 27.5 0 -0.3 -37.2z m-120.6 22.6 c8.9 -7.5 30.8 -20.4 34.6 -20.4 4.5 0 -0.5 -8.6 -7.3 -12.6 -2.5 -1.4 -6.2 -3 -8.3 -3.5 -3.3 -0.7 -4 -0.5 -6.5 1.9 -4.1 3.9 -13.2 17.8 -15.5 23.8 -2.5 6.2 -3.8 14.4 -2.4 14.4 0.6 0 3 -1.6 5.4 -3.6z"/>
  <path d="M143.8 186.5 c-5.4 -3 -7.6 -12.4 -4.2 -17.3 3.8 -5.5 12.3 -6.8 17.2 -2.7 6.1 5.1 6.6 12.8 1.3 17.9 -3.6 3.5 -10.2 4.4 -14.3 2.1z m10.4 -6.2 c2.2 -2 2.3 -6.1 0.1 -8.5 -1.9 -2.1 -6.2 -2.4 -8.8 -0.4 -2.1 1.5 -2.5 6.7 -0.5 9 1.7 2.1 6.9 2 9.2 -0.1z"/>
 </g>
</svg>